/* XPM */
static char *_3be8e1dec2f4b8187e2fbcd2f6fecb12YZ97xKZAzPKQsvw[] = {
/* columns rows colors chars-per-pixel */
"32 32 7 1 ",
"  c black",
". c #2E200E",
"X c #771E0E",
"o c #63451F",
"O c #FF411D",
"+ c #FFFFFFFF",
"- c #FFFFFE",
/* pixels */
"++++++++++++++++++++++++++++++++",
"++++++++++++++++++++++++++++++++",
"++++++++++++++    ++++++++++++++",
"++++++++++++++ oo ++++++++++++++",
"++++++++++++++ .oo +++++++++++++",
"+++++++++++++++ .o +++++++++++++",
"+++++++++++++++ .o +++++++++++++",
"++++++++++      .o     +++++++++",
"++++++++   XOO  .  OOO  ++++++++",
"+++++++  XXOOOO . OOOOOO  ++++++",
"+++++++ XOOOOOOO OOOOOOOO  +++++",
"++++++ XOOOOOOOOOOOOOO--OO  ++++",
"+++++  XOOOOOOOOOOOOOO---OO ++++",
"+++++ XOOOOOOOOOOOOOOOOO-OO ++++",
"+++++ XOOOOOOOOOOOOOOOOOO-OO +++",
"++++ XXOOOOOOOOOOOOOOOOOO-OO +++",
"++++ XXOOOOOOOOOOOOOOOOOOOOO +++",
"++++ XXOOOOOOOOOOOOOOOOOOOOO +++",
"++++ XXXOOOOOOOOOOOOOOOOOOO ++++",
"++++ XXXOOOOOOOOOOOOOOOO-O  ++++",
"+++++ XXOOOOOOOOOOOOOOO--O +++++",
"+++++  XXOOOOOOOOOOOOOO-OO +++++",
"++++++ XXXOOOOOOOOOOOO-OO ++++++",
"+++++++ XXXOOOOOOOOOO-OOO ++++++",
"+++++++  XXXOOOOOOOO-OOO +++++++",
"++++++++ XXXXOOOOOOOOOO  +++++++",
"+++++++++ XXXXXXXXOOOO  ++++++++",
"+++++++++  XXX   XXXX  +++++++++",
"++++++++++     +      ++++++++++",
"++++++++++++++++++++++++++++++++",
"++++++++++++++++++++++++++++++++",
"++++++++++++++++++++++++++++++++"
};
