/* XPM */
static char *eef6ec59e6fe457dc0d6f96f78ab87eaOc3KLv3ybph9Wq06[] = {
/* columns rows colors chars-per-pixel */
"32 32 3 1 ",
"  c gray44",
". c #836826",
"X c #E3B442",
/* pixels */
"XXXXXXXXXXXXXXXXXXXXXXXXXXXXXXXX",
"XXXXXXXXXXXXXXXXXXXXXXXXXXXXXXXX",
"XXX..XXXXXXX  XXXXXXXXXXXXXXXXXX",
"XXXXXXXXXXXX  XXXXXXXXXXXXX.XXXX",
"XXXXXXXXXXXXXXXXXXXXXXXXXXX..XXX",
"XXXXXXXXXXXXXXXXXXXX    XXXXXXXX",
"XXXXX..XXXXXXXXXXXXX    XXXXXXXX",
"XXXXX..XXXXXXXXXXXXXX  XXXXXXXXX",
"XXXXXXXXXXXXXXXXXXXXXXXXXXXXXXXX",
"XXXXXXXXXXXXXXXXXXXXXXXXXXXXXXXX",
"XXXXXXXXXXXXXXXXXXXXXXXXXXXXXXXX",
"XXXXXXXXXXX.XXXXXXXXXXXX..XXXXXX",
"XXXXXXXXXXXXXXXX XXXXXXXXXXXXXXX",
"XXXXXXXXXXXXXXXXXXXXXXXXXXXXXXXX",
"XXXXXXXXXXXXXXXXXXXXXXXXXXX   XX",
"XXX   XXXXXXXXXXXXXXXXXXXX    XX",
"XXX  XXXXXXXXXXXXX.XXXXXXX   XXX",
"XXXXXXXXX.XXXXXXXX.XXXXXXXXXXXXX",
"XXXXXXXXXXXXXXXXXXXXXXXXXXXXXXXX",
"XXXXXXXXXXXXXXXXXXXXXXXXXXXXXXXX",
"XXXXXXXXXXXXXXXXXXXXXXXXXXXXXXXX",
"XXXXXXXXXXXXXXXXXXXXXXX..XXXXXXX",
"XXXXXXXXXXXXXXXXXXXXXXX..XXXXXXX",
"XX.XXXXXXXXXXXXXX  XXXXXXXXXXXXX",
"X..XXXX...XXXXXXX  XXXXXXXXXXXXX",
"XXXXXXX...XXXXXXXXXXXXXXXXXXXXXX",
"XXXXXXXXXXXXXXXXXXXXXXXXXXXXX XX",
"XXXXXXXXXXXXXXXXXXXXXXXXXXXX  XX",
"XXXXX XXXXXXXXXXXXXXXXX.XXXXXXXX",
"XX.XXXXXXXXXXXX XXXXXXXXXXXXXXXX",
"XXXXXXXXXXXXXXXXXXXXXXXXXXXXXXXX",
"XXXXXXXXXXXXXXXXXXXXXXXXXXXXXXXX"
};
