/* XPM */
static char *_6fb693bdafb4a43be1bbd162d1980f3kxQ2SsqVxEJPgX0E[] = {
/* columns rows colors chars-per-pixel */
"32 32 49 1 ",
"  c None",
". c #F48E0A",
"X c #F48F0B",
"o c #F4900C",
"O c #F4900D",
"+ c #F4910D",
"@ c #F4920F",
"# c #F5930F",
"$ c #F59410",
"% c #F59411",
"& c #F59613",
"* c #F59713",
"= c #F59714",
"- c #F59814",
"; c #F69915",
": c #F69A16",
"> c #F69B18",
", c #F69C19",
"< c #F79E1B",
"1 c #F7A01E",
"2 c #F7A320",
"3 c #F7A321",
"4 c #F8A826",
"5 c #F9AC2A",
"6 c #F9AD2C",
"7 c #F9AE2C",
"8 c #FAAE2D",
"9 c #FAB230",
"0 c #FAB231",
"q c #FAB332",
"w c #FBB433",
"e c #FBB534",
"r c #FBB635",
"t c #FBB736",
"y c #FBB837",
"u c #FCBA39",
"i c #FDBF3E",
"p c #FDC040",
"a c #FDC242",
"s c #FDC343",
"d c #FEC747",
"f c #FEC848",
"g c #FEC849",
"h c #FEC949",
"j c #FFCA4B",
"k c #FFCB4C",
"l c #FFCC4C",
"z c #FFCC4D",
"x c #FFCD4E",
/* pixels */
"                                ",
"                                ",
"                                ",
"                                ",
"                  o             ",
"                  oo            ",
"           o      ooo           ",
"           o      oooo          ",
"          ooo     oooo          ",
"          oooo  oooooo          ",
"           ooooooooooo          ",
"     o     ooooooooooo          ",
"     o     ooooooooooo          ",
"    ooo    ooooooooooo          ",
"    oooo  ooooo%oooooo     o    ",
"    oooooooooo$q6%oooo     o    ",
"    ooooooooooowxr%ooo    oo    ",
"    ooooooooooo5xx5oooo  ooo    ",
"    ooooo:ooooowxxp%oooooooo    ",
"    oooo%u,XoX%axxh:XooXoooo    ",
"     ooo8x8o.%yxkxh1ooX:ooo     ",
"     oo%sxhuraxxxkk4.X$r:oo     ",
"     oX3kkxxxxxkkxxi<:qh3Xo     ",
"      X5xxkxkxkxxkkxhdkx5X      ",
"       wxkxkxkxkkxkxkxkxq       ",
"        xkkxkxkxxkxkxkxx        ",
"         xxkxkxkkxkxkxx         ",
"           xkxkxxkxkx           ",
"             xxxkxh             ",
"                                ",
"                                ",
"                                "
};
