/* XPM */
static char *_7c357617f5248a7dfee94e8faafbe6awTjTiTECSBp2g3MS[] = {
/* columns rows colors chars-per-pixel */
"32 32 6 1 ",
"  c black",
". c #462C13",
"X c #505050",
"o c #975F28",
"O c #ACACAC",
"+ c #FFFFFFFF",
/* pixels */
"++++++++++++++++++++++++++++++++",
"++++++++++++++++++++++++++++++++",
"+++++++  +++++++++++  ++++++++++",
"++++++  o +++++++++  o +++++++++",
"++++++ .o +++++++++ .o +++++++++",
"++++++ .oo ++       .oo ++++++++",
"+++++++ .o    OOOOOO .o ++++++++",
"+++++++ .o XXXX      .o ++++++++",
"+++++++ .o      ++++ .o ++++++++",
"+++++++ .o +++++++++ .o ++++++++",
"+++++++ .o +++++++++ .o ++++++++",
"+++++++ .o ++++++    .o ++++++++",
"+++++++ .o        OO .o ++++++++",
"+++++++ .oo XXXXXXX  .oo +++++++",
"+++++++  .o        +  .o +++++++",
"++++++++ .o +++++++++ .o +++++++",
"++++++++ .o +++++++++ .o +++++++",
"++++++++ .o +++++++++ .o +++++++",
"++++++++ .o +++++     .o +++++++",
"++++++++ .o       OOO .o +++++++",
"++++++++ .o XXXXXXXX  .o +++++++",
"++++++++ .oo          .oo ++++++",
"++++++++  .o  +++++++  .o ++++++",
"+++++++++ .o +++++++++ .o ++++++",
"+++++++++ .o +++++++++ .o ++++++",
"+++++++++ .o +++++++++ .o ++++++",
"+++++++++ .o +++++++++ .o ++++++",
"+++++++++ .o +++++++++ .o ++++++",
"+++++++++ . ++++++++++ . +++++++",
"++++++++++ ++++++++++++ ++++++++",
"++++++++++++++++++++++++++++++++",
"++++++++++++++++++++++++++++++++"
};
