/* XPM */
static char *_cc6713338b54713b8ab79a5e2b9b47a1fDymIpT5SSvjHyK[] = {
/* columns rows colors chars-per-pixel */
"32 32 8 1 ",
"  c #184100",
". c #2A6F00",
"X c #297000",
"o c #297100",
"O c #47C200",
"+ c #F6FBF1",
"@ c #FDFDFD",
"# c #FFFFFFFFF",
/* pixels */
"################################",
"################XXXX###XXX######",
"########XXXX##XXOOOXX#XOOOXX####",
"###  #ooOOOXX+XOOOOOOXOOOOOX####",
"## .OooOOOOOOXOOOOOOOXOOOOOX####",
"#  oOOoOOOOOOXOOOOOOOOOOOOXXXX##",
"# o.OOOOOOOOOOOOOOOOOOOOOOOOOXX#",
"# .oOOOOOOOOOOOOOOOOOOOOOOOOOOX#",
"# o.OOOOOOOOOOOOOOOOOOOOOOOOOOX#",
"# .oXXOOOOOOOOOOOOOOOOOOOOOOOXX#",
"#  oXXXOOOOOOOOOOOOOOOOOOOOXXX##",
"##  XXXOOOOOOOOOOOOOOOOOOOOOOX##",
"## XXOOOOOOOOOOOOOOOOOOOOOOOOOX#",
"# XXOOOOOOOOOOOOOOOOOOOOOOOOOOX#",
"# .XOOOOOOOOOOOOOOOOOOOOOOOOOOX#",
"# XXOOOOOOOOOOOOOOOOOOOOOOOOOX##",
"# XXXXXOOOOOOOOOOOOOOOOOOOOOXX##",
"# XX XOOOOOOOOOOOOOOOOOOOOOOOOX#",
"##  XOOOOOOOOOOOOOOOOOOOOOOOOOX#",
"## XXOOOOOOOOOOOOOOOOOOOOOOOOOX#",
"## XXOOOOOOOOOOOOOOOOOOOOOOOOOX#",
"#  XXOOOOOOOOOOOOOOOOOOOOOOOOX##",
"# XXXOOOOOOOOOOOOOOOOOOOOOOOOX##",
"#  XXXXXOOOOOOOOOOOOOOOOXOOOOXX#",
"#@ XX XOOOOOOOOOOXOOOOOOXXOOOO #",
"###  XXOOOXOOOOOOXXOOOOX XXOOX #",
"#### XXXXXXXOOOOXXXOOOXX  XXXX #",
"#### XXXX  XXXOXX XXXXXX #  X  #",
"#### XX  # XXXXX.  XXXXX ###  ##",
"#####   ###  XX  #      ########",
"#############  #################",
"################################"
};
