/* XPM */
static char *_902c9ee47594db1c01941573237ba07zxKXHfQYR8LRgtJ3[] = {
/* columns rows colors chars-per-pixel */
"32 32 6 1 ",
"  c black",
". c #62A23E",
"X c #64A43E",
"o c #97F95F",
"O c #9BFF61",
"+ c #FFFFFFFF",
/* pixels */
"++++++++++++++++++++++++++++++++",
"++++++++++++++++++++++++++++++++",
"+++++       ++++++++++++++++++++",
"+++++       ++++++++++++++++++++",
"+++++       ++++++++++++++++++++",
"+++           ++++++++++++++++++",
"+++              +++++++++++++++",
"+++++ XOOOOO OOO   +++++++++++++",
"+++++ X OO O OOO OO     ++++++++",
"+++++ XOOOOO OOO OOO OO ++++++++",
"+++++ X OO O OOO OOO OOO +++++++",
"+++++ XX  O .OOO OOO OOO  ++++++",
"+++++  XXX  XOO XOOO OOO O +++++",
"++++++      XX  XOO XOOO O  ++++",
"+++++  ++++   +  XX XOO oOO ++++",
"+++  ++++  +++ +    XX  OOO ++++",
"++++  ++++ +++  +   XOOO  ++++++",
"+++++++++ +++ ++   XXOO   ++++++",
"++++++  +  ++  +  XX  O ++++++++",
"+++++++++++++ ++ X   OO ++++++++",
"++++++++++       XOOOOO ++++++++",
"+++++++++++++ ++ XOOOO  ++++++++",
"++++++++++++++   XXXX  +++++++++",
"+++++++++++++++XX      +++++++++",
"++++++++++++++ XXOOOOO +++++++++",
"++++++++++++++ XXXXXX ++++++++++",
"++++++++++++++++++        ++++++",
"++++++++++++++++++ ++++ ++++++++",
"+++++++++++++++++  ++++ ++++++++",
"++++++++++++++++++++++  ++++++++",
"++++++++++++++++++++++++++++++++",
"++++++++++++++++++++++++++++++++"
};
